<svg xmlns="http://www.w3.org/2000/svg" width="64" height="64" viewBox="0 0 64 64" role="img" aria-label="Calculadora Financeira">
  <title>Calculadora Financeira</title>
  <rect x="10" y="4" width="44" height="56" rx="6" fill="#003366"/>
  <rect x="14" y="8" width="36" height="14" rx="2" fill="#EC7000"/>
  <rect x="14" y="26" width="8" height="8" rx="1" fill="#ffffff"/>
  <rect x="24" y="26" width="8" height="8" rx="1" fill="#ffffff"/>
  <rect x="34" y="26" width="8" height="8" rx="1" fill="#ffffff"/>
  <rect x="44" y="26" width="6" height="8" rx="1" fill="#EC7000"/>
  <rect x="14" y="36" width="8" height="8" rx="1" fill="#ffffff"/>
  <rect x="24" y="36" width="8" height="8" rx="1" fill="#ffffff"/>
  <rect x="34" y="36" width="8" height="8" rx="1" fill="#ffffff"/>
  <rect x="44" y="36" width="6" height="8" rx="1" fill="#EC7000"/>
  <rect x="14" y="46" width="8" height="8" rx="1" fill="#ffffff"/>
  <rect x="24" y="46" width="8" height="8" rx="1" fill="#ffffff"/>
  <rect x="34" y="46" width="8" height="8" rx="1" fill="#ffffff"/>
  <rect x="44" y="46" width="6" height="8" rx="1" fill="#EC7000"/>
</svg>
